<svg xmlns="http://www.w3.org/2000/svg" viewBox="0 0 500 500"><g id="freepik--fireworks-2--inject-132"><path d="M303.57,187.3l.06,0a.75.75,0,0,0,.91-1.19l-12.06-9.23Z" style="fill:#000000"></path><path d="M286.34,195.2l2-18.45L284.86,195s0,0,0,.06a.75.75,0,0,0,1.49.16Z" style="fill:#000000"></path><path d="M284.56,175.31l-13.9,6.94-.06,0a.75.75,0,1,0,.8,1.28Z" style="fill:#000000"></path><path d="M268.43,165.79a.75.75,0,0,0-.4,1.44l16.67,4.65-16.2-6.07Z" style="fill:#000000"></path><path d="M279.42,155.09a.21.21,0,0,1,0-.06.76.76,0,0,0-1-.21.74.74,0,0,0-.21,1l8.56,13Z" style="fill:#000000"></path><path d="M296,155.92,291.11,169l6.22-12.49a.25.25,0,0,0,0-.07.76.76,0,0,0-.45-1A.75.75,0,0,0,296,155.92Z" style="fill:#000000"></path><path d="M306.83,171.18a.75.75,0,0,0-.29-1.47l-13.06,2.54,13.26-1.06Z" style="fill:#000000"></path><path d="M298.52,176.65a.75.75,0,0,0,.83-.67.77.77,0,0,0-.68-.83l-7-.72,6.65,2.19A.41.41,0,0,0,298.52,176.65Z" style="fill:#000000"></path><path d="M289.85,181.62a.76.76,0,1,0,1.49-.22l-1.53-5.16Z" style="fill:#000000"></path><path d="M283.69,180.22a1.29,1.29,0,0,0-.09.16.76.76,0,0,0,.39,1,.75.75,0,0,0,1-.39l2.43-5.56Z" style="fill:#000000"></path><path d="M286.05,173.8l-6.83-.24h-.17a.75.75,0,0,0,.28,1.48Z" style="fill:#000000"></path><path d="M281.72,167.65l1,.75a.77.77,0,0,0-.81.52.78.78,0,0,0,.5,1l2.46.81L283.51,169l3.66,2.68-4.44-5.1-.12-.12a.76.76,0,0,0-1.06.17A.75.75,0,0,0,281.72,167.65Z" style="fill:#000000"></path><path d="M289.49,168.69l.38,1,.82-1.68a.86.86,0,0,0,0-.65.83.83,0,0,0-1.06-.47.5.5,0,0,0-.12.08l.07-2.39a1.23,1.23,0,0,0,0-.19.76.76,0,0,0-1.48.33l1.32,5.93Z" style="fill:#000000"></path><path d="M291.44,171.82l5.72-3.13a.71.71,0,0,0,.14-.1.76.76,0,0,0,.06-1.07.77.77,0,0,0-1.07-.06Z" style="fill:#000000"></path><path d="M293.74,192.27a.76.76,0,0,0,1,.43.75.75,0,0,0,.43-1l-1.77-4.6.31,4.92A.68.68,0,0,0,293.74,192.27Z" style="fill:#000000"></path><path d="M278.68,189.27l2.12-4.39-3.35,3.54a.94.94,0,0,0-.14.19.76.76,0,0,0,.36,1A.75.75,0,0,0,278.68,189.27Z" style="fill:#000000"></path><path d="M269.65,173.16a.65.65,0,0,0-.28,0,.76.76,0,1,0,.15,1.52l4-.39Z" style="fill:#000000"></path><path d="M273.64,160a.78.78,0,0,0-1.06.2.76.76,0,0,0,.2,1l4.23,2.9-3.21-4A1.17,1.17,0,0,0,273.64,160Z" style="fill:#000000"></path><path d="M288.9,154.18a.81.81,0,0,0,0-.22.76.76,0,0,0-.83-.68.77.77,0,0,0-.68.84l.54,5.17Z" style="fill:#000000"></path><path d="M301.47,164.14l4.33-2.36a.59.59,0,0,0,.18-.14.76.76,0,0,0-1.09-1Z" style="fill:#000000"></path><path d="M308.7,179.75a.77.77,0,0,0,.89-.61.76.76,0,0,0-.61-.88l-4.54-.84,4,2.25Z" style="fill:#000000"></path><path d="M297.66,174a.49.49,0,0,0,.24,0,.75.75,0,1,0-.24-1.49l-4.83.76Z" style="fill:#000000"></path><path d="M296.25,178.57a.76.76,0,1,0,.42-1.47l-3.65-1,3,2.36A.72.72,0,0,0,296.25,178.57Z" style="fill:#000000"></path><path d="M292.82,181.07A.77.77,0,0,0,293,180l-2-3.09.61,3.63a.65.65,0,0,0,.11.29A.76.76,0,0,0,292.82,181.07Z" style="fill:#000000"></path><path d="M286.79,181a.78.78,0,0,0,.76-.79l0-3-1.42,2.62a.85.85,0,0,0-.09.38A.79.79,0,0,0,286.79,181Z" style="fill:#000000"></path><path d="M286.41,175.39l-2.55,1.33a.8.8,0,0,0-.3.28.78.78,0,0,0,.25,1.07.77.77,0,0,0,1.07-.25Z" style="fill:#000000"></path><path d="M284.81,172.67l-3.4-.89a.86.86,0,0,0-.32,0,.77.77,0,0,0-.63.89.76.76,0,0,0,.89.62Z" style="fill:#000000"></path><path d="M286.73,166.72a.78.78,0,0,0-.08,1.11l1.61,1.88-.23-2.46a.83.83,0,0,0-.19-.44A.79.79,0,0,0,286.73,166.72Z" style="fill:#000000"></path><path d="M285.79,167.72a.78.78,0,1,0-.86,1.3l2.28,1.5L286.07,168A.79.79,0,0,0,285.79,167.72Z" style="fill:#000000"></path><path d="M294.46,168.32a.77.77,0,1,0-1.37-.71l-1.43,2.72,2.55-1.73A.69.69,0,0,0,294.46,168.32Z" style="fill:#000000"></path><g style="opacity:0.75"><path d="M303.57,187.3l.06,0a.75.75,0,0,0,.91-1.19l-12.06-9.23Z" style="fill:#fff"></path><path d="M286.34,195.2l2-18.45L284.86,195s0,0,0,.06a.75.75,0,0,0,1.49.16Z" style="fill:#fff"></path><path d="M284.56,175.31l-13.9,6.94-.06,0a.75.75,0,1,0,.8,1.28Z" style="fill:#fff"></path><path d="M268.43,165.79a.75.75,0,0,0-.4,1.44l16.67,4.65-16.2-6.07Z" style="fill:#fff"></path><path d="M279.42,155.09a.21.21,0,0,1,0-.06.76.76,0,0,0-1-.21.74.74,0,0,0-.21,1l8.56,13Z" style="fill:#fff"></path><path d="M296,155.92,291.11,169l6.22-12.49a.25.25,0,0,0,0-.07.76.76,0,0,0-.45-1A.75.75,0,0,0,296,155.92Z" style="fill:#fff"></path><path d="M306.83,171.18a.75.75,0,0,0-.29-1.47l-13.06,2.54,13.26-1.06Z" style="fill:#fff"></path><path d="M298.52,176.65a.75.75,0,0,0,.83-.67.77.77,0,0,0-.68-.83l-7-.72,6.65,2.19A.41.41,0,0,0,298.52,176.65Z" style="fill:#fff"></path><path d="M289.85,181.62a.76.76,0,1,0,1.49-.22l-1.53-5.16Z" style="fill:#fff"></path><path d="M283.69,180.22a1.29,1.29,0,0,0-.09.16.76.76,0,0,0,.39,1,.75.75,0,0,0,1-.39l2.43-5.56Z" style="fill:#fff"></path><path d="M286.05,173.8l-6.83-.24h-.17a.75.75,0,0,0,.28,1.48Z" style="fill:#fff"></path><path d="M281.72,167.65l1,.75a.77.77,0,0,0-.81.52.78.78,0,0,0,.5,1l2.46.81L283.51,169l3.66,2.68-4.44-5.1-.12-.12a.76.76,0,0,0-1.06.17A.75.75,0,0,0,281.72,167.65Z" style="fill:#fff"></path><path d="M289.49,168.69l.38,1,.82-1.68a.86.86,0,0,0,0-.65.83.83,0,0,0-1.06-.47.5.5,0,0,0-.12.08l.07-2.39a1.23,1.23,0,0,0,0-.19.76.76,0,0,0-1.48.33l1.32,5.93Z" style="fill:#fff"></path><path d="M291.44,171.82l5.72-3.13a.71.71,0,0,0,.14-.1.76.76,0,0,0,.06-1.07.77.77,0,0,0-1.07-.06Z" style="fill:#fff"></path><path d="M293.74,192.27a.76.76,0,0,0,1,.43.75.75,0,0,0,.43-1l-1.77-4.6.31,4.92A.68.68,0,0,0,293.74,192.27Z" style="fill:#fff"></path><path d="M278.68,189.27l2.12-4.39-3.35,3.54a.94.94,0,0,0-.14.19.76.76,0,0,0,.36,1A.75.75,0,0,0,278.68,189.27Z" style="fill:#fff"></path><path d="M269.65,173.16a.65.65,0,0,0-.28,0,.76.76,0,1,0,.15,1.52l4-.39Z" style="fill:#fff"></path><path d="M273.64,160a.78.78,0,0,0-1.06.2.76.76,0,0,0,.2,1l4.23,2.9-3.21-4A1.17,1.17,0,0,0,273.64,160Z" style="fill:#fff"></path><path d="M288.9,154.18a.81.81,0,0,0,0-.22.76.76,0,0,0-.83-.68.77.77,0,0,0-.68.84l.54,5.17Z" style="fill:#fff"></path><path d="M301.47,164.14l4.33-2.36a.59.59,0,0,0,.18-.14.76.76,0,0,0-1.09-1Z" style="fill:#fff"></path><path d="M308.7,179.75a.77.77,0,0,0,.89-.61.76.76,0,0,0-.61-.88l-4.54-.84,4,2.25Z" style="fill:#fff"></path><path d="M297.66,174a.49.49,0,0,0,.24,0,.75.75,0,1,0-.24-1.49l-4.83.76Z" style="fill:#fff"></path><path d="M296.25,178.57a.76.76,0,1,0,.42-1.47l-3.65-1,3,2.36A.72.72,0,0,0,296.25,178.57Z" style="fill:#fff"></path><path d="M292.82,181.07A.77.77,0,0,0,293,180l-2-3.09.61,3.63a.65.65,0,0,0,.11.29A.76.76,0,0,0,292.82,181.07Z" style="fill:#fff"></path><path d="M286.79,181a.78.78,0,0,0,.76-.79l0-3-1.42,2.62a.85.85,0,0,0-.09.38A.79.79,0,0,0,286.79,181Z" style="fill:#fff"></path><path d="M286.41,175.39l-2.55,1.33a.8.8,0,0,0-.3.28.78.78,0,0,0,.25,1.07.77.77,0,0,0,1.07-.25Z" style="fill:#fff"></path><path d="M284.81,172.67l-3.4-.89a.86.86,0,0,0-.32,0,.77.77,0,0,0-.63.89.76.76,0,0,0,.89.62Z" style="fill:#fff"></path><path d="M286.73,166.72a.78.78,0,0,0-.08,1.11l1.61,1.88-.23-2.46a.83.83,0,0,0-.19-.44A.79.79,0,0,0,286.73,166.72Z" style="fill:#fff"></path><path d="M285.79,167.72a.78.78,0,1,0-.86,1.3l2.28,1.5L286.07,168A.79.79,0,0,0,285.79,167.72Z" style="fill:#fff"></path><path d="M294.46,168.32a.77.77,0,1,0-1.37-.71l-1.43,2.72,2.55-1.73A.69.69,0,0,0,294.46,168.32Z" style="fill:#fff"></path></g><path d="M359.05,90.23H359a.74.74,0,0,0-.84.64.77.77,0,0,0,.65.85l15.06,2Z" style="fill:#000000"></path><path d="M370,74.77l7.47,17-6.08-17.53a.14.14,0,0,0,0-.06.75.75,0,0,0-1-.38A.74.74,0,0,0,370,74.77Z" style="fill:#000000"></path><path d="M381.51,91.11l8.56-13,0-.06a.75.75,0,0,0-1.33-.71Z" style="fill:#000000"></path><path d="M400.23,91.29a.74.74,0,0,0,.54-.91.73.73,0,0,0-.91-.54L383.1,94.15l17.07-2.85Z" style="fill:#000000"></path><path d="M396.07,106l.06,0a.76.76,0,0,0,1-.34.73.73,0,0,0-.34-1l-13.89-6.95Z" style="fill:#000000"></path><path d="M381.33,113.6,379,99.85l.85,13.92s0,.06,0,.08a.75.75,0,1,0,1.48-.25Z" style="fill:#000000"></path><path d="M364.29,105.82a.75.75,0,0,0-.08,1.06.76.76,0,0,0,1.06.07l10-8.73-11,7.55Z" style="fill:#000000"></path><path d="M368.75,96.92a.76.76,0,0,0-.38,1,.75.75,0,0,0,1,.38l6.4-2.85-6.86,1.42Z" style="fill:#000000"></path><path d="M373.77,88.29a.75.75,0,0,0-.14-.17.76.76,0,0,0-1,1.1l3.9,3.71Z" style="fill:#000000"></path><path d="M379.8,86.42a.6.6,0,0,0,0-.19.75.75,0,0,0-1.5.17l.68,6Z" style="fill:#000000"></path><path d="M381,93.16,387,90a.42.42,0,0,0,.14-.09.76.76,0,0,0,.08-1.06.75.75,0,0,0-1.06-.09Z" style="fill:#000000"></path><path d="M387.8,96.32l-1.26-.14a.77.77,0,0,0,.44-.86.78.78,0,0,0-.93-.6l-2.54.53,2.08.83-4.51-.49,6.39,2.19.17,0a.75.75,0,0,0,.16-1.5Z" style="fill:#000000"></path><path d="M380.55,99.31l-.82-.66.13,1.87a.82.82,0,0,0,1.46.45.45.45,0,0,0,.06-.12l1.14,2.1a.86.86,0,0,0,.1.16.77.77,0,0,0,1.07,0,.76.76,0,0,0,.05-1.07l-4.11-4.47Z" style="fill:#000000"></path><path d="M377.29,97.57l-3.39,5.57-.07.16a.76.76,0,0,0,1.44.47Z" style="fill:#000000"></path><path d="M365.08,81a.76.76,0,1,0-.95,1.19L368,85.29l-2.74-4.11A.8.8,0,0,0,365.08,81Z" style="fill:#000000"></path><path d="M379.62,76.08l.35,4.86,1.14-4.74a.58.58,0,0,0,0-.23.76.76,0,0,0-1.51.11Z" style="fill:#000000"></path><path d="M395.49,85.52a1.23,1.23,0,0,0,.26-.12.78.78,0,0,0,.18-1.07.77.77,0,0,0-1.07-.17l-3.27,2.33Z" style="fill:#000000"></path><path d="M398.63,98.92a.76.76,0,0,0,.11-1.51l-5.1-.39,4.77,1.85A.79.79,0,0,0,398.63,98.92Z" style="fill:#000000"></path><path d="M388.31,111.58a.93.93,0,0,0,.11.19.74.74,0,0,0,1.05.17.75.75,0,0,0,.17-1.06l-3.05-4.21Z" style="fill:#000000"></path><path d="M372.45,109.24l-2.57,4.2a.85.85,0,0,0-.09.22.76.76,0,0,0,1.47.36Z" style="fill:#000000"></path><path d="M358.38,99.33a.76.76,0,0,0,.51,1.44l4.34-1.55-4.61.07A1,1,0,0,0,358.38,99.33Z" style="fill:#000000"></path><path d="M370.84,98.83a.82.82,0,0,0-.2.12.76.76,0,0,0-.12,1.07.77.77,0,0,0,1.07.11l3.8-3.08Z" style="fill:#000000"></path><path d="M369.75,94.13a.77.77,0,0,0-.56.93.76.76,0,0,0,.93.55l3.68-.93-3.75-.56A.76.76,0,0,0,369.75,94.13Z" style="fill:#000000"></path><path d="M371.47,90.25a.77.77,0,0,0,.34,1L375.09,93l-2.34-2.84a.79.79,0,0,0-.25-.19A.77.77,0,0,0,371.47,90.25Z" style="fill:#000000"></path><path d="M376.73,87.28a.77.77,0,0,0-.27,1.06L378,90.9l-.09-3a.83.83,0,0,0-.11-.37A.77.77,0,0,0,376.73,87.28Z" style="fill:#000000"></path><path d="M379.86,92l1.55-2.43a.85.85,0,0,0,.12-.39.78.78,0,1,0-1.56-.06Z" style="fill:#000000"></path><path d="M382.61,93.52l3.38-.93a.73.73,0,0,0,.29-.15.77.77,0,1,0-1-1.18Z" style="fill:#000000"></path><path d="M383.92,99.63a.78.78,0,0,0-.48-1l-2.34-.82,1.43,2a.78.78,0,0,0,.39.29A.79.79,0,0,0,383.92,99.63Z" style="fill:#000000"></path><path d="M384.24,98.3a.77.77,0,0,0,.82-.73.78.78,0,0,0-.73-.83l-2.73-.16,2.23,1.58A.84.84,0,0,0,384.24,98.3Z" style="fill:#000000"></path><path d="M376.42,102.11a.78.78,0,0,0,1.55-.06L377.84,99l-1.34,2.77A.91.91,0,0,0,376.42,102.11Z" style="fill:#000000"></path><g style="opacity:0.75"><path d="M359.05,90.23H359a.74.74,0,0,0-.84.64.77.77,0,0,0,.65.85l15.06,2Z" style="fill:#fff"></path><path d="M370,74.77l7.47,17-6.08-17.53a.14.14,0,0,0,0-.06.75.75,0,0,0-1-.38A.74.74,0,0,0,370,74.77Z" style="fill:#fff"></path><path d="M381.51,91.11l8.56-13,0-.06a.75.75,0,0,0-1.33-.71Z" style="fill:#fff"></path><path d="M400.23,91.29a.74.74,0,0,0,.54-.91.73.73,0,0,0-.91-.54L383.1,94.15l17.07-2.85Z" style="fill:#fff"></path><path d="M396.07,106l.06,0a.76.76,0,0,0,1-.34.73.73,0,0,0-.34-1l-13.89-6.95Z" style="fill:#fff"></path><path d="M381.33,113.6,379,99.85l.85,13.92s0,.06,0,.08a.75.75,0,1,0,1.48-.25Z" style="fill:#fff"></path><path d="M364.29,105.82a.75.75,0,0,0-.08,1.06.76.76,0,0,0,1.06.07l10-8.73-11,7.55Z" style="fill:#fff"></path><path d="M368.75,96.92a.76.76,0,0,0-.38,1,.75.75,0,0,0,1,.38l6.4-2.85-6.86,1.42Z" style="fill:#fff"></path><path d="M373.77,88.29a.75.75,0,0,0-.14-.17.76.76,0,0,0-1,1.1l3.9,3.71Z" style="fill:#fff"></path><path d="M379.8,86.42a.6.6,0,0,0,0-.19.75.75,0,0,0-1.5.17l.68,6Z" style="fill:#fff"></path><path d="M381,93.16,387,90a.42.42,0,0,0,.14-.09.76.76,0,0,0,.08-1.06.75.75,0,0,0-1.06-.09Z" style="fill:#fff"></path><path d="M387.8,96.32l-1.26-.14a.77.77,0,0,0,.44-.86.78.78,0,0,0-.93-.6l-2.54.53,2.08.83-4.51-.49,6.39,2.19.17,0a.75.75,0,0,0,.16-1.5Z" style="fill:#fff"></path><path d="M380.55,99.31l-.82-.66.13,1.87a.82.82,0,0,0,1.46.45.45.45,0,0,0,.06-.12l1.14,2.1a.86.86,0,0,0,.1.16.77.77,0,0,0,1.07,0,.76.76,0,0,0,.05-1.07l-4.11-4.47Z" style="fill:#fff"></path><path d="M377.29,97.57l-3.39,5.57-.07.16a.76.76,0,0,0,1.44.47Z" style="fill:#fff"></path><path d="M365.08,81a.76.76,0,1,0-.95,1.19L368,85.29l-2.74-4.11A.8.8,0,0,0,365.08,81Z" style="fill:#fff"></path><path d="M379.62,76.08l.35,4.86,1.14-4.74a.58.58,0,0,0,0-.23.76.76,0,0,0-1.51.11Z" style="fill:#fff"></path><path d="M395.49,85.52a1.23,1.23,0,0,0,.26-.12.78.78,0,0,0,.18-1.07.77.77,0,0,0-1.07-.17l-3.27,2.33Z" style="fill:#fff"></path><path d="M398.63,98.92a.76.76,0,0,0,.11-1.51l-5.1-.39,4.77,1.85A.79.79,0,0,0,398.63,98.92Z" style="fill:#fff"></path><path d="M388.31,111.58a.93.93,0,0,0,.11.19.74.74,0,0,0,1.05.17.75.75,0,0,0,.17-1.06l-3.05-4.21Z" style="fill:#fff"></path><path d="M372.45,109.24l-2.57,4.2a.85.85,0,0,0-.09.22.76.76,0,0,0,1.47.36Z" style="fill:#fff"></path><path d="M358.38,99.33a.76.76,0,0,0,.51,1.44l4.34-1.55-4.61.07A1,1,0,0,0,358.38,99.33Z" style="fill:#fff"></path><path d="M370.84,98.83a.82.82,0,0,0-.2.12.76.76,0,0,0-.12,1.07.77.77,0,0,0,1.07.11l3.8-3.08Z" style="fill:#fff"></path><path d="M369.75,94.13a.77.77,0,0,0-.56.93.76.76,0,0,0,.93.55l3.68-.93-3.75-.56A.76.76,0,0,0,369.75,94.13Z" style="fill:#fff"></path><path d="M371.47,90.25a.77.77,0,0,0,.34,1L375.09,93l-2.34-2.84a.79.79,0,0,0-.25-.19A.77.77,0,0,0,371.47,90.25Z" style="fill:#fff"></path><path d="M376.73,87.28a.77.77,0,0,0-.27,1.06L378,90.9l-.09-3a.83.83,0,0,0-.11-.37A.77.77,0,0,0,376.73,87.28Z" style="fill:#fff"></path><path d="M379.86,92l1.55-2.43a.85.85,0,0,0,.12-.39.78.78,0,1,0-1.56-.06Z" style="fill:#fff"></path><path d="M382.61,93.52l3.38-.93a.73.73,0,0,0,.29-.15.77.77,0,1,0-1-1.18Z" style="fill:#fff"></path><path d="M383.92,99.63a.78.78,0,0,0-.48-1l-2.34-.82,1.43,2a.78.78,0,0,0,.39.29A.79.79,0,0,0,383.92,99.63Z" style="fill:#fff"></path><path d="M384.24,98.3a.77.77,0,0,0,.82-.73.78.78,0,0,0-.73-.83l-2.73-.16,2.23,1.58A.84.84,0,0,0,384.24,98.3Z" style="fill:#fff"></path><path d="M376.42,102.11a.78.78,0,0,0,1.55-.06L377.84,99l-1.34,2.77A.91.91,0,0,0,376.42,102.11Z" style="fill:#fff"></path></g><path d="M201.49,83l0-.06a.75.75,0,0,0-.19-1,.74.74,0,0,0-1,.18l-8.73,12.43Z" style="fill:#000000"></path><path d="M210.09,99.91l-18.51-1.26,18.35,2.75H210a.76.76,0,0,0,.8-.7A.75.75,0,0,0,210.09,99.91Z" style="fill:#000000"></path><path d="M190.29,102.51l7.51,13.6a.21.21,0,0,0,0,.06.75.75,0,0,0,1,.2.77.77,0,0,0,.2-1.05Z" style="fill:#000000"></path><path d="M181.45,119a.75.75,0,0,0,.55.9.77.77,0,0,0,.91-.56l4-16.85L181.46,119S181.45,119,181.45,119Z" style="fill:#000000"></path><path d="M170.31,108.48l-.06,0a.75.75,0,0,0,.87,1.22l12.6-9.09Z" style="fill:#000000"></path><path d="M170.45,91.92l13.27,4.3L171,90.52l-.07,0A.76.76,0,0,0,170,91,.74.74,0,0,0,170.45,91.92Z" style="fill:#000000"></path><path d="M185.25,80.43a.75.75,0,0,0-.91-.55.74.74,0,0,0-.55.9l3.07,12.94-1.6-13.2S185.25,80.46,185.25,80.43Z" style="fill:#000000"></path><path d="M191.06,88.51a.76.76,0,0,0-1.51-.09l-.44,7L191,88.67A.45.45,0,0,0,191.06,88.51Z" style="fill:#000000"></path><path d="M196.38,97a.78.78,0,0,0,.21,0,.76.76,0,0,0,.47-1,.75.75,0,0,0-1-.47L191,97.23Z" style="fill:#000000"></path><path d="M195.24,103.17a.51.51,0,0,0,.16.09.76.76,0,0,0,.55-1.41l-5.66-2.2Z" style="fill:#000000"></path><path d="M188.72,101.08l0,6.84a1,1,0,0,0,0,.17.75.75,0,0,0,1.47-.34Z" style="fill:#000000"></path><path d="M182.76,105.67l.7-1.06a.78.78,0,0,0,.56.79.79.79,0,0,0,1-.54l.7-2.49L184,103.82l2.52-3.76-4.91,4.64-.11.13a.75.75,0,0,0,.21,1A.75.75,0,0,0,182.76,105.67Z" style="fill:#000000"></path><path d="M183.47,97.86l1-.42-1.71-.75a.8.8,0,0,0-.66,0,.82.82,0,0,0-.42,1.08s.06.07.08.11l-2.39,0a.57.57,0,0,0-.18,0,.74.74,0,0,0-.54.92.76.76,0,0,0,.92.54l5.87-1.56Z" style="fill:#000000"></path><path d="M186.52,95.78l-3.36-5.59-.11-.13a.75.75,0,1,0-1.08,1Z" style="fill:#000000"></path><path d="M206.85,92.64a.76.76,0,1,0-.6-1.39l-4.52,2,4.9-.51A.79.79,0,0,0,206.85,92.64Z" style="fill:#000000"></path><path d="M204.48,107.81,200,105.87l3.67,3.21a.82.82,0,0,0,.2.12.76.76,0,1,0,.6-1.39Z" style="fill:#000000"></path><path d="M188.76,117.49a.93.93,0,0,0,0,.29.76.76,0,0,0,.86.65.77.77,0,0,0,.66-.86l-.56-4Z" style="fill:#000000"></path><path d="M175.43,114.06a.76.76,0,0,0,1.29.8l2.71-4.34-3.86,3.37A.61.61,0,0,0,175.43,114.06Z" style="fill:#000000"></path><path d="M169,99.05h-.22a.76.76,0,0,0,.22,1.5l5.14-.75Z" style="fill:#000000"></path><path d="M178.43,86.08l-2.53-4.23a.65.65,0,0,0-.15-.18.76.76,0,1,0-1,1.14Z" style="fill:#000000"></path><path d="M193.73,78.21a.76.76,0,0,0-1.5-.22l-.65,4.57,2.08-4.12A.88.88,0,0,0,193.73,78.21Z" style="fill:#000000"></path><path d="M188.4,89.47a.91.91,0,0,0,0-.23.76.76,0,0,0-1.49.3l1,4.79Z" style="fill:#000000"></path><path d="M193.07,90.69a.77.77,0,0,0-1.49-.35L190.7,94,192.94,91A.72.72,0,0,0,193.07,90.69Z" style="fill:#000000"></path><path d="M195.7,94a.76.76,0,0,0-1.06-.18l-3,2.13,3.61-.76a.7.7,0,0,0,.28-.12A.76.76,0,0,0,195.7,94Z" style="fill:#000000"></path><path d="M195.9,100.05a.77.77,0,0,0-.81-.73l-3,.17,2.68,1.3a.71.71,0,0,0,.38.08A.77.77,0,0,0,195.9,100.05Z" style="fill:#000000"></path><path d="M190.29,100.65l1.44,2.5a.89.89,0,0,0,.29.29.78.78,0,0,0,.77-1.35Z" style="fill:#000000"></path><path d="M187.65,102.37l-.75,3.43a.91.91,0,0,0,0,.33.77.77,0,0,0,1.5-.33Z" style="fill:#000000"></path><path d="M181.63,100.7a.79.79,0,0,0,1.11,0l1.8-1.68-2.44.33a.84.84,0,0,0-.44.2A.8.8,0,0,0,181.63,100.7Z" style="fill:#000000"></path><path d="M182.66,101.6a.78.78,0,1,0,1.33.8l1.41-2.34L183,101.3A.75.75,0,0,0,182.66,101.6Z" style="fill:#000000"></path><path d="M182.9,92.9a.77.77,0,1,0-.66,1.4L185,95.62l-1.83-2.48A.87.87,0,0,0,182.9,92.9Z" style="fill:#000000"></path><g style="opacity:0.75"><path d="M201.49,83l0-.06a.75.75,0,0,0-.19-1,.74.74,0,0,0-1,.18l-8.73,12.43Z" style="fill:#fff"></path><path d="M210.09,99.91l-18.51-1.26,18.35,2.75H210a.76.76,0,0,0,.8-.7A.75.75,0,0,0,210.09,99.91Z" style="fill:#fff"></path><path d="M190.29,102.51l7.51,13.6a.21.21,0,0,0,0,.06.75.75,0,0,0,1,.2.77.77,0,0,0,.2-1.05Z" style="fill:#fff"></path><path d="M181.45,119a.75.75,0,0,0,.55.9.77.77,0,0,0,.91-.56l4-16.85L181.46,119S181.45,119,181.45,119Z" style="fill:#fff"></path><path d="M170.31,108.48l-.06,0a.75.75,0,0,0,.87,1.22l12.6-9.09Z" style="fill:#fff"></path><path d="M170.45,91.92l13.27,4.3L171,90.52l-.07,0A.76.76,0,0,0,170,91,.74.74,0,0,0,170.45,91.92Z" style="fill:#fff"></path><path d="M185.25,80.43a.75.75,0,0,0-.91-.55.74.74,0,0,0-.55.9l3.07,12.94-1.6-13.2S185.25,80.46,185.25,80.43Z" style="fill:#fff"></path><path d="M191.06,88.51a.76.76,0,0,0-1.51-.09l-.44,7L191,88.67A.45.45,0,0,0,191.06,88.51Z" style="fill:#fff"></path><path d="M196.38,97a.78.78,0,0,0,.21,0,.76.76,0,0,0,.47-1,.75.75,0,0,0-1-.47L191,97.23Z" style="fill:#fff"></path><path d="M195.24,103.17a.51.51,0,0,0,.16.09.76.76,0,0,0,.55-1.41l-5.66-2.2Z" style="fill:#fff"></path><path d="M188.72,101.08l0,6.84a1,1,0,0,0,0,.17.75.75,0,0,0,1.47-.34Z" style="fill:#fff"></path><path d="M182.76,105.67l.7-1.06a.78.78,0,0,0,.56.79.79.79,0,0,0,1-.54l.7-2.49L184,103.82l2.52-3.76-4.91,4.64-.11.13a.75.75,0,0,0,.21,1A.75.75,0,0,0,182.76,105.67Z" style="fill:#fff"></path><path d="M183.47,97.86l1-.42-1.71-.75a.8.8,0,0,0-.66,0,.82.82,0,0,0-.42,1.08s.06.07.08.11l-2.39,0a.57.57,0,0,0-.18,0,.74.74,0,0,0-.54.92.76.76,0,0,0,.92.54l5.87-1.56Z" style="fill:#fff"></path><path d="M186.52,95.78l-3.36-5.59-.11-.13a.75.75,0,1,0-1.08,1Z" style="fill:#fff"></path><path d="M206.85,92.64a.76.76,0,1,0-.6-1.39l-4.52,2,4.9-.51A.79.79,0,0,0,206.85,92.64Z" style="fill:#fff"></path><path d="M204.48,107.81,200,105.87l3.67,3.21a.82.82,0,0,0,.2.12.76.76,0,1,0,.6-1.39Z" style="fill:#fff"></path><path d="M188.76,117.49a.93.93,0,0,0,0,.29.76.76,0,0,0,.86.65.77.77,0,0,0,.66-.86l-.56-4Z" style="fill:#fff"></path><path d="M175.43,114.06a.76.76,0,0,0,1.29.8l2.71-4.34-3.86,3.37A.61.61,0,0,0,175.43,114.06Z" style="fill:#fff"></path><path d="M169,99.05h-.22a.76.76,0,0,0,.22,1.5l5.14-.75Z" style="fill:#fff"></path><path d="M178.43,86.08l-2.53-4.23a.65.65,0,0,0-.15-.18.76.76,0,1,0-1,1.14Z" style="fill:#fff"></path><path d="M193.73,78.21a.76.76,0,0,0-1.5-.22l-.65,4.57,2.08-4.12A.88.88,0,0,0,193.73,78.21Z" style="fill:#fff"></path><path d="M188.4,89.47a.91.91,0,0,0,0-.23.76.76,0,0,0-1.49.3l1,4.79Z" style="fill:#fff"></path><path d="M193.07,90.69a.77.77,0,0,0-1.49-.35L190.7,94,192.94,91A.72.72,0,0,0,193.07,90.69Z" style="fill:#fff"></path><path d="M195.7,94a.76.76,0,0,0-1.06-.18l-3,2.13,3.61-.76a.7.7,0,0,0,.28-.12A.76.76,0,0,0,195.7,94Z" style="fill:#fff"></path><path d="M195.9,100.05a.77.77,0,0,0-.81-.73l-3,.17,2.68,1.3a.71.71,0,0,0,.38.08A.77.77,0,0,0,195.9,100.05Z" style="fill:#fff"></path><path d="M190.29,100.65l1.44,2.5a.89.89,0,0,0,.29.29.78.78,0,0,0,.77-1.35Z" style="fill:#fff"></path><path d="M187.65,102.37l-.75,3.43a.91.91,0,0,0,0,.33.77.77,0,0,0,1.5-.33Z" style="fill:#fff"></path><path d="M181.63,100.7a.79.79,0,0,0,1.11,0l1.8-1.68-2.44.33a.84.84,0,0,0-.44.2A.8.8,0,0,0,181.63,100.7Z" style="fill:#fff"></path><path d="M182.66,101.6a.78.78,0,1,0,1.33.8l1.41-2.34L183,101.3A.75.75,0,0,0,182.66,101.6Z" style="fill:#fff"></path><path d="M182.9,92.9a.77.77,0,1,0-.66,1.4L185,95.62l-1.83-2.48A.87.87,0,0,0,182.9,92.9Z" style="fill:#fff"></path></g></g><g id="freepik--fireworks-1--inject-132"><path d="M403,178,381.1,193a.75.75,0,1,1-.84-1.24l0,0Z" style="fill:#000000"></path><path d="M405.44,171.19l-29.58-13.35a.75.75,0,0,1-.38-1,.76.76,0,0,1,1-.38l0,0Z" style="fill:#000000"></path><path d="M409.81,165.57l-6.5-26.37a.75.75,0,0,1,1.46-.36v0Z" style="fill:#000000"></path><path d="M415.47,167.56l16.79-25.18a.75.75,0,0,1,1-.21.76.76,0,0,1,.2,1.05l0,0Z" style="fill:#000000"></path><path d="M419.58,172.46l26.2-7.13a.75.75,0,0,1,.39,1.45h0Z" style="fill:#000000"></path><path d="M417,179.77,436,195a.75.75,0,1,1-.94,1.17l0,0Z" style="fill:#000000"></path><path d="M410.36,182.07l-3,23.06a.75.75,0,0,1-.84.65.76.76,0,0,1-.65-.85s0,0,0,0Z" style="fill:#000000"></path><path d="M407.62,178l-5.28,11a.76.76,0,0,1-1,.35.75.75,0,0,1-.35-1,.22.22,0,0,1,0-.08Z" style="fill:#000000"></path><path d="M405.55,173.88l-9.33-.65a.75.75,0,0,1-.69-.8.74.74,0,0,1,.8-.7h.12Z" style="fill:#000000"></path><path d="M408.14,170.28,400.5,163a.75.75,0,0,1,1-1.09.27.27,0,0,1,.07.08Z" style="fill:#000000"></path><path d="M411.57,168.84l1.9-11.77a.75.75,0,1,1,1.48.24.36.36,0,0,1,0,.1Z" style="fill:#000000"></path><path d="M414.6,171.81l9.76-6.58a.76.76,0,0,1,1.05.2.75.75,0,0,1-.21,1l-.08.05Z" style="fill:#000000"></path><path d="M415.16,176.13l10.48,1.39a.75.75,0,0,1,.65.84.77.77,0,0,1-.85.65l-.1,0Z" style="fill:#000000"></path><path d="M412.11,178.87l4.27,10.53a.76.76,0,0,1-1.4.57l0-.1Z" style="fill:#000000"></path><path d="M385.53,174.26l-8.53-.32a.38.38,0,0,1-.37-.39.39.39,0,0,1,.39-.36h0Z" style="fill:#000000"></path><path d="M395.72,154.37,390.2,148a.38.38,0,0,1,.57-.49l0,0Z" style="fill:#000000"></path><path d="M417.22,147.63l2.27-6.54a.38.38,0,0,1,.48-.23.37.37,0,0,1,.23.48v0Z" style="fill:#000000"></path><path d="M432.39,158.68l7.48-4.78a.37.37,0,1,1,.4.63l0,0Z" style="fill:#000000"></path><path d="M434.88,179.44l8.61,2.64a.38.38,0,1,1-.22.72h0Z" style="fill:#000000"></path><path d="M419.82,199.59l3.3,7.87a.37.37,0,0,1-.69.29v0Z" style="fill:#000000"></path><path d="M396.08,197.75l-4.48,6.6a.38.38,0,1,1-.62-.43l0,0Z" style="fill:#000000"></path><path d="M409.06,180.48l-2.09,8.2a.38.38,0,0,1-.46.27.38.38,0,0,1-.27-.46v0Z" style="fill:#000000"></path><path d="M404.2,179.33l-4.27,4.93a.38.38,0,0,1-.53,0,.37.37,0,0,1,0-.53l0,0Z" style="fill:#000000"></path><path d="M403.79,175.58l-6.27.84a.38.38,0,0,1-.42-.32.37.37,0,0,1,.32-.42h.05Z" style="fill:#000000"></path><path d="M405.05,169.51l-4.53-2.27a.38.38,0,1,1,.34-.67l0,0Z" style="fill:#000000"></path><path d="M408.73,168.63l-2.45-4.22a.39.39,0,0,1,.14-.52.37.37,0,0,1,.51.14l0,.05Z" style="fill:#000000"></path><path d="M414.09,167.34l1.64-5.78a.37.37,0,1,1,.72.2s0,0,0,.05Z" style="fill:#000000"></path><path d="M417.31,168.48l3.2-3a.38.38,0,1,1,.51.55.1.1,0,0,1,0,0Z" style="fill:#000000"></path><path d="M417.28,174.63l4.06-.8a.38.38,0,1,1,.14.74h-.06Z" style="fill:#000000"></path><path d="M416.45,172.47l4.07-2.19a.37.37,0,1,1,.35.66l-.05,0Z" style="fill:#000000"></path><path d="M416.53,177.35l3,.64a.38.38,0,0,1,.29.45.38.38,0,0,1-.45.29l-.09,0Z" style="fill:#000000"></path><path d="M414.49,180l3,4.27a.38.38,0,0,1-.62.44l0-.05Z" style="fill:#000000"></path><path d="M110.44,108.62,108.6,84.07A.69.69,0,1,1,110,84v0Z" style="fill:#000000"></path><path d="M114.8,113.71l24.43-17.57a.7.7,0,0,1,1,.16.68.68,0,0,1-.16,1l0,0Z" style="fill:#000000"></path><path d="M117.29,119.82l24.18,7a.69.69,0,0,1,.48.86.7.7,0,0,1-.86.48h0Z" style="fill:#000000"></path><path d="M113.06,123.44,125.5,148.6a.7.7,0,0,1-1.25.62l0,0Z" style="fill:#000000"></path><path d="M107.22,124.47l-6.43,24.35a.69.69,0,1,1-1.34-.35v0Z" style="fill:#000000"></path><path d="M102.55,119l-21.08,8.22a.69.69,0,0,1-.9-.39.7.7,0,0,1,.39-.9l0,0Z" style="fill:#000000"></path><path d="M103.78,112.61,86.65,99.5a.7.7,0,1,1,.85-1.1l0,0Z" style="fill:#000000"></path><path d="M108.33,112.3,101.94,103a.69.69,0,0,1,.18-1,.71.71,0,0,1,1,.18.3.3,0,0,1,0,.08Z" style="fill:#000000"></path><path d="M112.58,112.55l4.85-7.19a.7.7,0,1,1,1.16.78l-.07.09Z" style="fill:#000000"></path><path d="M114.27,116.3l9.4-2.75a.69.69,0,1,1,.39,1.33l-.09,0Z" style="fill:#000000"></path><path d="M113.84,119.72l8.57,7a.7.7,0,0,1,.1,1,.69.69,0,0,1-1,.1l-.07-.06Z" style="fill:#000000"></path><path d="M110.05,120.77l.76,10.9a.7.7,0,0,1-1.39.1v-.09Z" style="fill:#000000"></path><path d="M106.32,119.22l-6,7.77a.7.7,0,1,1-1.11-.85l.07-.07Z" style="fill:#000000"></path><path d="M105.53,115.5l-10.44-1.45a.7.7,0,0,1,.2-1.39l.09,0Z" style="fill:#000000"></path><path d="M121.56,96.29l4.21-6.7a.34.34,0,0,1,.48-.11.33.33,0,0,1,.11.48v0Z" style="fill:#000000"></path><path d="M132.81,113.7l7.68-1.47a.34.34,0,0,1,.41.27.35.35,0,0,1-.28.41h0Z" style="fill:#000000"></path><path d="M128.25,134.09l4.2,4.86a.35.35,0,0,1-.53.46l0,0Z" style="fill:#000000"></path><path d="M112.34,141.15l.37,8.23a.35.35,0,0,1-.34.36.35.35,0,0,1-.37-.33v0Z" style="fill:#000000"></path><path d="M94.52,133.52l-6.12,5.7a.35.35,0,0,1-.47-.51l0,0Z" style="fill:#000000"></path><path d="M85.32,112.09l-7.85-1a.35.35,0,1,1,.08-.69h0Z" style="fill:#000000"></path><path d="M97.81,93.87l-3.23-6.65a.36.36,0,0,1,.17-.47.34.34,0,0,1,.46.17,0,0,0,0,1,0,0Z" style="fill:#000000"></path><path d="M105.65,112.3,100,106.82a.35.35,0,0,1,0-.49.34.34,0,0,1,.49,0l0,0Z" style="fill:#000000"></path><path d="M108.83,108.94l-2-5.72a.35.35,0,0,1,.22-.44.34.34,0,0,1,.44.21.06.06,0,0,1,0,0Z" style="fill:#000000"></path><path d="M112,110.35l2.22-5.42a.35.35,0,0,1,.46-.19.34.34,0,0,1,.19.45s0,0,0,0Z" style="fill:#000000"></path><path d="M116.32,114.18l3.93-2.59a.34.34,0,0,1,.48.1.34.34,0,0,1-.1.48l0,0Z" style="fill:#000000"></path><path d="M115.32,117.53h4.53a.35.35,0,0,1,.35.35.35.35,0,0,1-.35.35h0Z" style="fill:#000000"></path><path d="M113.88,122.44l3.88,4a.34.34,0,0,1,0,.49.35.35,0,0,1-.49,0l0,0Z" style="fill:#000000"></path><path d="M111.47,124.5l.9,3.94a.35.35,0,0,1-.27.42.34.34,0,0,1-.41-.26.13.13,0,0,1,0-.06Z" style="fill:#000000"></path><path d="M106.54,121.62l-1.24,3.63a.35.35,0,0,1-.44.22.36.36,0,0,1-.22-.45l0,0Z" style="fill:#000000"></path><path d="M108.66,122l-.12,4.28a.36.36,0,0,1-.36.34.35.35,0,0,1-.34-.36.13.13,0,0,1,0-.06Z" style="fill:#000000"></path><path d="M104.71,119.76l-1.89,2.07a.35.35,0,0,1-.49,0,.34.34,0,0,1,0-.49l.07-.06Z" style="fill:#000000"></path><path d="M103.51,116.89l-4.83.44a.35.35,0,1,1-.07-.69h0Z" style="fill:#000000"></path><path d="M272.67,82.71l20.95-28.53a1,1,0,1,1,1.61,1.18l0,0Z" style="fill:#000000"></path><path d="M272.67,92.33,315.77,96a1,1,0,0,1-.17,2h-.05Z" style="fill:#000000"></path><path d="M269.67,101.33l19.85,30.27a1,1,0,1,1-1.68,1.1s0,0,0,0Z" style="fill:#000000"></path><path d="M261.67,101.33l-10,39.1a1,1,0,0,1-1.94-.5s0,0,0,0Z" style="fill:#000000"></path><path d="M254.33,97l-29.78,20.57a1,1,0,0,1-1.4-.26,1,1,0,0,1,.26-1.39l0,0Z" style="fill:#000000"></path><path d="M254.33,86.67,223.64,75.93a1,1,0,0,1-.61-1.27A1,1,0,0,1,224.3,74l.06,0Z" style="fill:#000000"></path><path d="M261.67,80.83l-6.44-30.32a1,1,0,1,1,2-.42s0,0,0,.07Z" style="fill:#000000"></path><path d="M266.92,84.75l1.76-16.17a1,1,0,1,1,2,.22.5.5,0,0,1,0,.12Z" style="fill:#000000"></path><path d="M271.33,89l12-3.32a1,1,0,0,1,.53,1.94l-.16,0Z" style="fill:#000000"></path><path d="M269.67,94.67l12.84,5.78a1,1,0,1,1-.83,1.83.47.47,0,0,1-.12-.07Z" style="fill:#000000"></path><path d="M266,98l2.83,15.63a1,1,0,0,1-.81,1.17,1,1,0,0,1-1.17-.81s0-.08,0-.12Z" style="fill:#000000"></path><path d="M260.88,95.6l-9.36,12.61a1,1,0,1,1-1.61-1.19.39.39,0,0,1,.08-.1Z" style="fill:#000000"></path><path d="M258.26,90.43l-13.79,2.89a1,1,0,1,1-.41-2l.14,0Z" style="fill:#000000"></path><path d="M260.88,85.63l-10-11.35A1,1,0,0,1,252.35,73l.08.11Z" style="fill:#000000"></path><path d="M296.33,79.65l10.88-3.38a.48.48,0,0,1,.62.33.49.49,0,0,1-.33.62h0Z" style="fill:#000000"></path><path d="M292.33,109.17l9.77,5.57a.52.52,0,0,1,.19.69.51.51,0,0,1-.69.18l0,0Z" style="fill:#000000"></path><path d="M268.29,127.17l0,9.22a.5.5,0,1,1-1,0v-.06Z" style="fill:#000000"></path><path d="M244.33,120l-7.28,9.32a.5.5,0,1,1-.79-.61l0,0Z" style="fill:#000000"></path><path d="M232,95.25l-12,.38c-.28,0-.51,0-.52-.3s.2-.33.48-.33h0Z" style="fill:#000000"></path><path d="M242,63l-7.64-8.43a.51.51,0,0,1,0-.71.51.51,0,0,1,.71,0l0,0Z" style="fill:#000000"></path><path d="M272.67,54.79l2.7-10.27a.5.5,0,1,1,1,.25s0,0,0,0Z" style="fill:#000000"></path><path d="M264,82.25,263,71a.5.5,0,0,1,1-.09V82.25Z" style="fill:#000000"></path><path d="M270.62,81.55l3.18-8.09a.5.5,0,1,1,.94.36l0,.06Z" style="fill:#000000"></path><path d="M272.8,86.08l7.5-3.83a.49.49,0,0,1,.67.22.5.5,0,0,1-.21.67l-.06,0Z" style="fill:#000000"></path><path d="M273.9,94.27l6.7.84a.5.5,0,0,1-.13,1l-.07,0Z" style="fill:#000000"></path><path d="M269.67,97l4.94,4.23a.5.5,0,1,1-.65.76.12.12,0,0,1,0,0Z" style="fill:#000000"></path><path d="M263.5,101l.5,8a.5.5,0,0,1-.47.53.5.5,0,0,1-.53-.47V109Z" style="fill:#000000"></path><path d="M258.94,101l-2.7,5.14a.51.51,0,0,1-.68.22.5.5,0,0,1-.21-.68.43.43,0,0,1,0-.07Z" style="fill:#000000"></path><path d="M256.26,93.25l-4.75,2.8a.49.49,0,0,1-.69-.17.51.51,0,0,1,.18-.69l.08,0Z" style="fill:#000000"></path><path d="M258.26,95.6l-4.14,4.56a.51.51,0,0,1-.75-.68l.06,0Z" style="fill:#000000"></path><path d="M256,89.5l-4,.5a.5.5,0,1,1-.12-1,.48.48,0,0,1,.12,0Z" style="fill:#000000"></path><path d="M257.38,85.25l-5.7-4a.51.51,0,0,1-.12-.7.5.5,0,0,1,.7-.12l.06,0Z" style="fill:#000000"></path></g></svg>