<?xml version="1.0" encoding="UTF-8"?>
<svg id="Layer_1" data-name="Layer 1" xmlns="http://www.w3.org/2000/svg" xmlns:xlink="http://www.w3.org/1999/xlink" viewBox="0 0 412.55 356.12">
  <defs>
    <style>
      .cls-1 {
        fill: url(#linear-gradient);
      }

      .cls-1, .cls-2, .cls-3, .cls-4 {
        stroke-width: 0px;
      }

      .cls-5 {
        fill: url(#linear-gradient-4);
        stroke: url(#linear-gradient-5);
        stroke-miterlimit: 10;
      }

      .cls-2 {
        fill: url(#linear-gradient-2);
      }

      .cls-3 {
        fill: url(#linear-gradient-3);
      }

      .cls-4 {
        fill: #231f20;
        opacity: .6;
      }
    </style>
    <linearGradient id="linear-gradient" x1="229.37" y1="47.7" x2="412.46" y2="47.7" gradientUnits="userSpaceOnUse">
      <stop offset="0" stop-color="#a9abae"/>
      <stop offset=".23" stop-color="#8e8e91"/>
      <stop offset=".73" stop-color="#494749"/>
      <stop offset="1" stop-color="#231f20"/>
    </linearGradient>
    <linearGradient id="linear-gradient-2" x1="73.09" y1="147.09" x2="220.23" y2="147.09" gradientUnits="userSpaceOnUse">
      <stop offset="0" stop-color="#fff"/>
      <stop offset=".15" stop-color="#e2e2e2"/>
      <stop offset=".49" stop-color="#9b9999"/>
      <stop offset=".97" stop-color="#292526"/>
      <stop offset="1" stop-color="#231f20"/>
    </linearGradient>
    <linearGradient id="linear-gradient-3" x1="128.32" y1="40.29" x2="202.3" y2="40.29" gradientUnits="userSpaceOnUse">
      <stop offset="0" stop-color="#fff"/>
      <stop offset="0" stop-color="#e2e2e3"/>
      <stop offset="0" stop-color="#9a9a9c"/>
      <stop offset="0" stop-color="#5b5c5f"/>
      <stop offset="1" stop-color="#231f20"/>
    </linearGradient>
    <linearGradient id="linear-gradient-4" x1="121.14" y1="253.31" x2="194.8" y2="253.31" xlink:href="#linear-gradient-3"/>
    <linearGradient id="linear-gradient-5" x1="120.3" y1="253.31" x2="195.3" y2="253.31" xlink:href="#linear-gradient-3"/>
  </defs>
  <path class="cls-1" d="m233.02,41.85c4.91,8.62,13.73,13.62,22.96,14.04,20.35.18,93.32-.35,93.32-.35,1.15-.11,15.7-1.3,25.18,10.27,6.72,8.21,8.28,19.63,4.07,29.58l30.08-53.64c1.44-2.5,4.6-8.81,3.67-16.94-1.11-9.67-7.52-17.78-14.34-20.98-1.75-.82-3.78-1.44-4.36-1.61-5.33-1.62-9.95-1.79-12.99-1.69-21.86.06-43.74.12-65.6.18-.04,0-.07,0-.11,0-18.19-.22-36.39-.44-54.58-.67-2.24-.13-5.56-.07-9.42.89,0,0-4.09,1.01-7.46,2.93-13.37,7.61-18.03,24.61-10.42,37.98Z"/>
  <path class="cls-2" d="m192.68,64.36c-9.92-.1-18.69,4.99-23.7,12.75-10.41,17.49-20.82,34.97-31.23,52.46-.7,1.26-1.4,2.53-2.11,3.78l-.21.39-6.99,12.79-6.2,11.36c-.48,1.05-6.79,14.21-21.56,16.57-10.48,1.67-21.12-2.74-27.6-11.4l31.17,53.02c7.79,13.26,24.86,17.69,38.12,9.9.48-.28,3.05-2.03,6.04-4.78,3.97-3.65,6.68-7.28,8.41-9.92,11.1-21.41,21.1-39.7,30.07-55.37,0,0,.05-.09.06-.1,9.36-15.6,18.72-31.2,28.09-46.8,1.24-1.88,2.87-4.77,3.97-8.58,0,0,1.19-4.04,1.23-7.92.17-15.38-12.17-27.98-27.55-28.14Z"/>
  <path class="cls-4" d="m258.65,160.95c-.79,15.36-13.89,27.17-29.26,26.37-9.2-.48-17.13-5.38-21.84-12.53-2.62-4.75-5.24-9.5-7.85-14.25-.63-1.15-1.27-2.3-1.89-3.44-4.54-8.24-9.07-16.47-13.61-24.71-2.95-4.38-9.14-11.31-19.47-12.96-10.48-1.67-21.12,2.74-27.6,11.4l31.16-53.02c7.79-13.26,24.86-17.68,38.12-9.89.48.28,3.05,2.03,6.04,4.78,3.97,3.66,6.68,7.28,8.4,9.92,4.11,7.93,8.07,15.43,11.88,22.52.06.09.1.18.15.28,4.47,8.32,8.74,16.08,12.8,23.34.03.04.06.08.08.13,1.72,3.13,3.44,6.27,5.15,9.4,1.66,3.01,3.31,6.03,4.96,9.04.61,1.24,1.34,2.97,1.9,5.12,0,0,1.09,4.18.86,8.51Z"/>
  <path class="cls-4" d="m183.49,161.77c-9.94,17.95-19.88,35.89-29.82,53.84-.86,1.1-12.53,15.54-29.33,13.53-6.92-.83-11.96-4.12-14.68-6.27-3.64-3.01-5.75-6.35-6.89-8.5-12.7-22.11-23.7-40.62-33.25-56.17,0-.01-.05-.1-.06-.1-9.84-15.3-19.69-30.6-29.54-45.9-.95-1.34-2.12-3.22-3.16-5.6L5.32,52.03C1.82,47.22-.17,41.26.01,34.85.47,19.48,13.28,7.38,28.67,7.83c9.22.27,17.25,4.99,22.11,12.04,11.82,20.34,23.63,40.68,35.44,61.03,10.53,16.48,21.05,32.96,31.58,49.44.74,1.24,1.47,2.48,2.22,3.71l.22.39,7.38,12.57,6.55,11.15c.51,1.04,7.23,13.99,22.07,15.88,10.53,1.34,21.03-3.4,27.23-12.26Z"/>
  <path class="cls-4" d="m412.55,28.65c0,4.77-1.26,8.29-1.26,8.29-.22.54-.53,1.26-.93,2.1,0,0-.01.02-.02.05-.64,1.35-.82,1.69-.94,1.9-.09.16-.14.25-.23.41-.77,1.33-1.14,2.06-2.23,3.99-.26.46-.4.71-.67,1.18-2.42,4.29-10.69,18.93-19.52,34.55-6.74,11.92-12.13,21.46-12.14,21.48l-109.9,189.57-28.06,47.67c-2.36,5.16-6.3,9.65-11.62,12.66-13.39,7.58-30.38,2.86-37.95-10.52-4.89-8.63-4.66-18.77-.29-26.91l-.15-.08,30.98-52.6c1.9-3.04,3.81-6.09,5.71-9.13l23.32-39.41,97-168.08c.66-.95,8.82-13.05,3.36-26.99-3.86-9.88-13.06-16.83-23.8-18.03l61.5.03c15.38,0,27.85,12.48,27.84,27.86Z"/>
  <path class="cls-3" d="m202.3,57.46c-6.84-5.32-15.53-4.76-17.28-4.64-1.6.1-9.12.73-15.57,6.02-3.03,2.49-5.2,5.5-6.04,6.67-1.37,1.93-1.92,3.09-3.99,6.7-1.14,2-2.83,4.89-4.99,8.38-6.95-12.14-13.9-24.28-20.85-36.43-3.49-4.82-5.46-10.79-5.26-17.2C128.83,11.58,141.69-.48,157.06.01c2.8.09,5.5.59,8.03,1.45,1.02.34,8.76,3.11,14.06,10.65.6.85,23.42,45.55,23.15,45.35Z"/>
  <path class="cls-5" d="m165.82,211.98c.98,8.61-4.04,15.74-5.05,17.17-.92,1.32-5.37,7.4-13.25,10.15-3.71,1.29-7.4,1.57-8.84,1.67-2.36.17-3.64.03-7.79-.09-2.3-.07-5.64-.14-9.75-.11,6.74,12.26,13.48,24.52,20.22,36.78,2.3,5.49,6.36,10.29,11.94,13.45,13.38,7.59,30.37,2.91,37.97-10.48,1.39-2.44,2.36-5,2.95-7.61.24-1.05,1.91-9.1-1.76-17.55-.41-.95-26.67-43.73-26.63-43.4Z"/>
</svg>