<?xml version="1.0" encoding="UTF-8"?>
<svg id="Layer_1" data-name="Layer 1" xmlns="http://www.w3.org/2000/svg" viewBox="0 0 393.66 338.59">
  <defs>
    <style>
      .cls-1 {
        fill: #231f20;
        stroke-width: 0px;
      }
    </style>
  </defs>
  <path class="cls-1" d="m.32,3.29c1.26,2.42,111.55,193.37,163.81,283.84.36.72,1.08,1.15,1.82,1.1.81-.06,1.28-.67,1.35-.76,6.17-10.6,12.35-21.21,18.52-31.81.3-.54.85-1.71.86-3.29,0-1.63-.56-2.83-.86-3.38-14.1-24.43-28.19-48.86-42.29-73.29-.36-.66-1.09-2.22-.97-4.3.09-1.64.66-2.86,1.02-3.5,16.8-28.97,33.6-57.94,50.4-86.92.48-.77,1.33-1.22,2.22-1.18.94.04,1.78.62,2.16,1.49,14.01,24.78,28.02,49.56,42.03,74.33.34.65.98,1.06,1.66,1.07.69,0,1.16-.4,1.28-.51,6.37-10.97,12.74-21.93,19.11-32.9.3-.49,1-1.82.92-3.64-.08-1.84-.93-3.11-1.27-3.57-20.67-36.81-41.34-73.62-62-110.43-.43-.84-1.56-2.76-3.88-4.16-2.6-1.56-5.12-1.52-6.05-1.46h-32.67c-.07,0-1.43.01-2.14,1.19-.47.78-.47,1.76,0,2.54,5.44,9.97,10.88,19.94,16.32,29.92.41.83.91,2.09,1.05,3.68.27,3.04-.91,5.36-1.45,6.28-15.81,27.31-31.62,54.63-47.43,81.94-.85,1.19-2.3,2.84-4.21,2.92-2.76.12-4.98-3.11-5.91-4.52C107.34,114.41,51.34,14.62,46.22,6.87c-.77-1.17-2.28-3.11-4.82-4.65C37.86.08,34.41-.02,32.95.02H2.89C1.5-.09.33.64.06,1.64c0,0-.23.69.26,1.64Z"/>
  <path class="cls-1" d="m216.05,4.49c-.49-1.03-.39-2.23.27-3.11.84-1.12,2.17-1.17,2.33-1.17,57.44.02,114.87.04,172.31.06,1.24-.07,2.29.59,2.6,1.52.23.71-.03,1.37-.14,1.59-63.91,110.75-127.83,221.49-191.74,332.24-1.18,1.95-3.32,3.1-5.54,2.96-3.06-.2-4.63-2.73-4.76-2.96-4-6.67-8.01-13.34-12.01-20.01-.86-1.19-3.1-4.65-3.01-9.5.06-3.24,1.14-5.7,1.84-7.01,49.5-85.51,98.99-171.02,148.49-256.52.05-.1.68-1.52-.16-2.88-.88-1.42-2.54-1.42-2.62-1.42-26.71.09-53.42.18-80.13.27-1.21.07-4,.05-7.01-1.53-2.9-1.53-4.47-3.71-5.12-4.74-5.2-9.26-10.4-18.52-15.6-27.78Z"/>
</svg>