<?xml version="1.0" standalone="no"?>
<!DOCTYPE svg PUBLIC "-//W3C//DTD SVG 20010904//EN"
 "http://www.w3.org/TR/2001/REC-SVG-20010904/DTD/svg10.dtd">
<svg version="1.0" xmlns="http://www.w3.org/2000/svg"
 width="2400.000000pt" height="2400.000000pt" viewBox="0 0 2400.000000 2400.000000"
 preserveAspectRatio="xMidYMid meet">

<g transform="translate(0.000000,2400.000000) scale(0.100000,-0.100000)"
fill="#000000" stroke="none">
<path d="M4168 17385 c-31 -17 -48 -44 -48 -73 0 -26 230 -426 3970 -6902 840
-1455 1771 -3066 2068 -3580 370 -641 547 -939 564 -949 59 -34 54 -41 463
661 261 449 383 669 393 706 23 91 8 131 -152 409 -78 136 -467 812 -865 1500
-668 1158 -724 1257 -734 1318 -9 54 -8 77 4 123 11 42 281 517 1023 1797 555
957 1019 1754 1033 1772 31 42 80 53 123 27 25 -15 194 -307 884 -1529 912
-1614 877 -1556 935 -1524 17 10 149 228 420 694 l395 680 4 75 c4 68 1 80
-25 130 -81 151 -2499 4452 -2528 4496 -37 56 -98 110 -160 142 -82 41 -128
43 -858 40 l-699 -3 -29 -33 c-16 -18 -29 -44 -29 -58 0 -15 142 -287 339
-647 186 -342 346 -646 355 -676 22 -77 20 -163 -7 -241 -28 -78 -1924 -3359
-1970 -3408 -101 -107 -214 -91 -322 46 -79 99 -324 517 -1108 1892 -1431
2510 -1565 2743 -1638 2852 -78 114 -199 207 -329 251 -64 21 -74 22 -755 24
-599 2 -694 1 -717 -12z"/>
<path d="M12808 17374 c-33 -17 -58 -62 -58 -101 0 -19 89 -187 258 -488 142
-253 289 -516 327 -585 109 -194 217 -287 381 -326 63 -15 211 -16 1729 -10
l1660 7 35 -23 c44 -30 62 -64 57 -108 -3 -25 -936 -1644 -2983 -5180 -1638
-2830 -2988 -5174 -3001 -5208 -45 -124 -45 -290 0 -413 27 -75 553 -958 600
-1007 91 -94 241 -96 333 -4 17 17 163 259 324 539 162 279 1890 3274 3841
6655 1951 3381 3549 6155 3550 6165 6 38 -11 71 -45 87 -31 15 -327 16 -3508
16 -3052 -1 -3476 -3 -3500 -16z"/>
</g>
</svg>
